<mxfile host="app.diagrams.net" modified="2024-06-24T15:50:06.939Z" agent="Mozilla/5.0 (Macintosh; Intel Mac OS X 10_15_7) AppleWebKit/537.36 (KHTML, like Gecko) Chrome/126.0.0.0 Safari/537.36" etag="WpTJSde-S3T1ZBsOrcQ8" version="24.4.8" type="device">
  <diagram name="Page-1" id="sN_1jneJIoe1D4WNb5N2">
    <mxGraphModel dx="1194" dy="731" grid="1" gridSize="10" guides="1" tooltips="1" connect="1" arrows="1" fold="1" page="1" pageScale="1" pageWidth="850" pageHeight="1100" math="0" shadow="0">
      <root>
        <mxCell id="0" />
        <mxCell id="1" parent="0" />
        <mxCell id="7_Zo4dvtms_4umAr7s4f-12" value="" style="rounded=1;whiteSpace=wrap;html=1;dashed=1;absoluteArcSize=1;fillColor=#e1d5e7;strokeColor=#9673a6;" vertex="1" parent="1">
          <mxGeometry x="400" y="320" width="460" height="415" as="geometry" />
        </mxCell>
        <mxCell id="7_Zo4dvtms_4umAr7s4f-11" value="" style="rounded=1;whiteSpace=wrap;html=1;dashed=1;absoluteArcSize=1;fillColor=#ffe6cc;strokeColor=#d79b00;" vertex="1" parent="1">
          <mxGeometry x="200" y="320" width="180" height="415" as="geometry" />
        </mxCell>
        <mxCell id="7_Zo4dvtms_4umAr7s4f-3" value="Internet&lt;br&gt;(Public)" style="outlineConnect=0;dashed=0;verticalLabelPosition=bottom;verticalAlign=top;align=center;html=1;shape=mxgraph.aws3.internet_2;fillColor=#D2D3D3;gradientColor=none;" vertex="1" parent="1">
          <mxGeometry x="30" y="653" width="79.5" height="54" as="geometry" />
        </mxCell>
        <mxCell id="7_Zo4dvtms_4umAr7s4f-15" style="edgeStyle=orthogonalEdgeStyle;rounded=0;orthogonalLoop=1;jettySize=auto;html=1;exitX=0;exitY=0.5;exitDx=0;exitDy=0;flowAnimation=1;" edge="1" parent="1" source="7_Zo4dvtms_4umAr7s4f-4" target="7_Zo4dvtms_4umAr7s4f-3">
          <mxGeometry relative="1" as="geometry" />
        </mxCell>
        <mxCell id="7_Zo4dvtms_4umAr7s4f-16" style="edgeStyle=orthogonalEdgeStyle;rounded=0;orthogonalLoop=1;jettySize=auto;html=1;exitX=0.5;exitY=0;exitDx=0;exitDy=0;entryX=0.5;entryY=1;entryDx=0;entryDy=0;startArrow=classic;startFill=1;flowAnimation=1;movable=1;flowAnimationDirection=alternate-reverse;" edge="1" parent="1" source="7_Zo4dvtms_4umAr7s4f-4" target="7_Zo4dvtms_4umAr7s4f-5">
          <mxGeometry relative="1" as="geometry" />
        </mxCell>
        <mxCell id="7_Zo4dvtms_4umAr7s4f-17" style="edgeStyle=orthogonalEdgeStyle;rounded=0;orthogonalLoop=1;jettySize=auto;html=1;exitX=1;exitY=0.5;exitDx=0;exitDy=0;entryX=0;entryY=0.5;entryDx=0;entryDy=0;startArrow=classic;startFill=1;flowAnimation=1;flowAnimationDirection=alternate-reverse;" edge="1" parent="1" source="7_Zo4dvtms_4umAr7s4f-4" target="7_Zo4dvtms_4umAr7s4f-10">
          <mxGeometry relative="1" as="geometry" />
        </mxCell>
        <mxCell id="7_Zo4dvtms_4umAr7s4f-4" value="&lt;b&gt;Home Router&lt;/b&gt;&lt;br&gt;192.168.0.0/24" style="rounded=1;whiteSpace=wrap;html=1;fillColor=#f5f5f5;fontColor=#333333;strokeColor=#666666;" vertex="1" parent="1">
          <mxGeometry x="230" y="650" width="120" height="60" as="geometry" />
        </mxCell>
        <mxCell id="7_Zo4dvtms_4umAr7s4f-5" value="Dev Laptop" style="rounded=1;whiteSpace=wrap;html=1;fillColor=#dae8fc;strokeColor=#6c8ebf;fontStyle=1" vertex="1" parent="1">
          <mxGeometry x="230" y="480" width="120" height="60" as="geometry" />
        </mxCell>
        <mxCell id="7_Zo4dvtms_4umAr7s4f-6" value="&lt;b&gt;Raspberry Pi&lt;/b&gt;&lt;br style=&quot;font-size: 11px;&quot;&gt;&lt;br style=&quot;font-size: 11px;&quot;&gt;Host:&amp;nbsp;&lt;span style=&quot;font-family: &amp;quot;Helvetica Neue&amp;quot;; font-size: 11px; background-color: initial;&quot;&gt;rpi3b01&lt;br style=&quot;font-size: 11px;&quot;&gt;Role: Server, Worker&lt;/span&gt;" style="rounded=1;whiteSpace=wrap;html=1;fontSize=11;align=left;spacingLeft=7;" vertex="1" parent="1">
          <mxGeometry x="430" y="400" width="120" height="120" as="geometry" />
        </mxCell>
        <mxCell id="7_Zo4dvtms_4umAr7s4f-7" value="&lt;b&gt;Raspberry Pi&lt;/b&gt;&lt;br style=&quot;font-size: 11px;&quot;&gt;&lt;br style=&quot;font-size: 11px;&quot;&gt;Host:&amp;nbsp;&lt;span style=&quot;font-family: &amp;quot;Helvetica Neue&amp;quot;; font-size: 11px; background-color: initial;&quot;&gt;rpi3b02&lt;br style=&quot;font-size: 11px;&quot;&gt;Role: Worker&lt;/span&gt;" style="rounded=1;whiteSpace=wrap;html=1;fontSize=11;align=left;spacingLeft=7;" vertex="1" parent="1">
          <mxGeometry x="570" y="400" width="120" height="120" as="geometry" />
        </mxCell>
        <mxCell id="7_Zo4dvtms_4umAr7s4f-8" value="&lt;b&gt;Raspberry Pi&lt;/b&gt;&lt;br style=&quot;font-size: 11px;&quot;&gt;&lt;br style=&quot;font-size: 11px;&quot;&gt;Host:&amp;nbsp;&lt;span style=&quot;font-family: &amp;quot;Helvetica Neue&amp;quot;; font-size: 11px; background-color: initial;&quot;&gt;rpi3b01&lt;br style=&quot;font-size: 11px;&quot;&gt;Role: Worker&lt;/span&gt;" style="rounded=1;whiteSpace=wrap;html=1;fontSize=11;align=left;spacingLeft=7;" vertex="1" parent="1">
          <mxGeometry x="710" y="400" width="120" height="120" as="geometry" />
        </mxCell>
        <mxCell id="7_Zo4dvtms_4umAr7s4f-18" style="edgeStyle=orthogonalEdgeStyle;rounded=0;orthogonalLoop=1;jettySize=auto;html=1;exitX=0.5;exitY=1;exitDx=0;exitDy=0;entryX=0.5;entryY=0;entryDx=0;entryDy=0;startArrow=classic;startFill=1;flowAnimation=1;flowAnimationDirection=alternate-reverse;" edge="1" parent="1" source="7_Zo4dvtms_4umAr7s4f-9" target="7_Zo4dvtms_4umAr7s4f-10">
          <mxGeometry relative="1" as="geometry" />
        </mxCell>
        <mxCell id="7_Zo4dvtms_4umAr7s4f-9" value="Network Switch (L2)" style="rounded=1;whiteSpace=wrap;html=1;fillColor=#f5f5f5;fontColor=#333333;strokeColor=#666666;fontStyle=1" vertex="1" parent="1">
          <mxGeometry x="430" y="540" width="400" height="60" as="geometry" />
        </mxCell>
        <mxCell id="7_Zo4dvtms_4umAr7s4f-10" value="&lt;b&gt;Cluster Router&lt;/b&gt;&lt;br&gt;10.10.0.0/24" style="rounded=1;whiteSpace=wrap;html=1;fillColor=#f5f5f5;fontColor=#333333;strokeColor=#666666;" vertex="1" parent="1">
          <mxGeometry x="570" y="650" width="120" height="60" as="geometry" />
        </mxCell>
        <mxCell id="7_Zo4dvtms_4umAr7s4f-13" value="Home Network" style="text;html=1;align=center;verticalAlign=middle;whiteSpace=wrap;rounded=0;fontStyle=1" vertex="1" parent="1">
          <mxGeometry x="220" y="330" width="140" height="30" as="geometry" />
        </mxCell>
        <mxCell id="7_Zo4dvtms_4umAr7s4f-14" value="Cluster Network" style="text;html=1;align=center;verticalAlign=middle;whiteSpace=wrap;rounded=0;fontStyle=1" vertex="1" parent="1">
          <mxGeometry x="560" y="330" width="140" height="30" as="geometry" />
        </mxCell>
      </root>
    </mxGraphModel>
  </diagram>
</mxfile>
